<svg viewBox="0 0 24 24" fill="none" stroke="#64748B" stroke-width="2" stroke-linecap="round" stroke-linejoin="round">
  <path d="M12 15a3 3 0 1 0 0-6 3 3 0 0 0 0 6z"/>
  <path d="M19.4 15a1.65 1.65 0 0 0 .33 1.82l.06.06a2 2 0 1 1-2.83 2.83l-.06-.06a1.65 1.65 0 0 0-1.82-.33 1.65 1.65 0 0 0-1 1.51V21a2 2 0 1 1-4 0v-.09a1.65 1.65 0 0 0-1-1.51 1.65 1.65 0 0 0-1.82.33l-.06.06a2 2 0 1 1-2.83-2.83l.06-.06a1.65 1.65 0 0 0 .33-1.82 1.65 1.65 0 0 0-1.51-1H3a2 2 0 1 1 0-4h.09a1.65 1.65 0 0 0 1.51-1 1.65 1.65 0 0 0-.33-1.82l-.06-.06A2 2 0 1 1 7.04 3.2l.06.06a1.65 1.65 0 0 0 1.82.33h.01A1.65 1.65 0 0 0 10.5 2.09V2a2 2 0 1 1 4 0v.09a1.65 1.65 0 0 0 1 1.51h.01c.6.25 1.28.14 1.82-.33l.06-.06a2 2 0 1 1 2.83 2.83l-.06.06c-.47.54-.58 1.23-.33 1.82v.01c.25.6.85 1 1.51 1H22a2 2 0 1 1 0 4h-.09a1.65 1.65 0 0 0-1.51 1z"/>
</svg>